<mxfile host="app.diagrams.net" agent="Mozilla/5.0 (X11; Linux x86_64) AppleWebKit/537.36 (KHTML, like Gecko) Chrome/135.0.0.0 Safari/537.36" version="26.2.9">
  <diagram name="PÃ¡gina-1" id="sov8IUadK8Pr9SV5D048">
    <mxGraphModel dx="1428" dy="1928" grid="1" gridSize="10" guides="1" tooltips="1" connect="1" arrows="1" fold="1" page="1" pageScale="1" pageWidth="827" pageHeight="1169" math="0" shadow="0">
      <root>
        <mxCell id="0" />
        <mxCell id="1" parent="0" />
        <mxCell id="UJ0ENTlWFr_UsNrsg2RX-23" value="NS: wordpress" style="rounded=0;whiteSpace=wrap;html=1;verticalAlign=top;align=left;" vertex="1" parent="1">
          <mxGeometry x="110" y="-190" width="680" height="670" as="geometry" />
        </mxCell>
        <mxCell id="UJ0ENTlWFr_UsNrsg2RX-14" value="Netpol&lt;div&gt;Ingress WP&lt;/div&gt;" style="rounded=0;whiteSpace=wrap;html=1;align=left;verticalAlign=top;" vertex="1" parent="1">
          <mxGeometry x="270" y="80" width="240" height="370" as="geometry" />
        </mxCell>
        <mxCell id="UJ0ENTlWFr_UsNrsg2RX-12" style="edgeStyle=orthogonalEdgeStyle;rounded=0;orthogonalLoop=1;jettySize=auto;html=1;" edge="1" parent="1" source="UJ0ENTlWFr_UsNrsg2RX-1" target="UJ0ENTlWFr_UsNrsg2RX-10">
          <mxGeometry relative="1" as="geometry" />
        </mxCell>
        <mxCell id="UJ0ENTlWFr_UsNrsg2RX-1" value="Wordpress" style="rounded=0;whiteSpace=wrap;html=1;" vertex="1" parent="1">
          <mxGeometry x="325" y="130" width="120" height="60" as="geometry" />
        </mxCell>
        <mxCell id="UJ0ENTlWFr_UsNrsg2RX-5" style="edgeStyle=orthogonalEdgeStyle;rounded=0;orthogonalLoop=1;jettySize=auto;html=1;" edge="1" parent="1" source="UJ0ENTlWFr_UsNrsg2RX-2" target="UJ0ENTlWFr_UsNrsg2RX-1">
          <mxGeometry relative="1" as="geometry" />
        </mxCell>
        <mxCell id="UJ0ENTlWFr_UsNrsg2RX-2" value="SVC/WP" style="triangle;whiteSpace=wrap;html=1;rotation=-90;" vertex="1" parent="1">
          <mxGeometry x="355" y="-20" width="60" height="80" as="geometry" />
        </mxCell>
        <mxCell id="UJ0ENTlWFr_UsNrsg2RX-15" style="edgeStyle=orthogonalEdgeStyle;rounded=0;orthogonalLoop=1;jettySize=auto;html=1;" edge="1" parent="1" source="UJ0ENTlWFr_UsNrsg2RX-3" target="UJ0ENTlWFr_UsNrsg2RX-2">
          <mxGeometry relative="1" as="geometry" />
        </mxCell>
        <mxCell id="UJ0ENTlWFr_UsNrsg2RX-3" value="wptest.devel.k24.indap.cl" style="shape=parallelogram;perimeter=parallelogramPerimeter;whiteSpace=wrap;html=1;fixedSize=1;" vertex="1" parent="1">
          <mxGeometry x="270" y="-130" width="230" height="60" as="geometry" />
        </mxCell>
        <mxCell id="UJ0ENTlWFr_UsNrsg2RX-4" value=":80" style="text;html=1;align=center;verticalAlign=middle;resizable=0;points=[];autosize=1;strokeColor=none;fillColor=none;" vertex="1" parent="1">
          <mxGeometry x="420" y="18" width="40" height="30" as="geometry" />
        </mxCell>
        <mxCell id="UJ0ENTlWFr_UsNrsg2RX-6" value=":80" style="text;html=1;align=center;verticalAlign=middle;resizable=0;points=[];autosize=1;strokeColor=none;fillColor=none;" vertex="1" parent="1">
          <mxGeometry x="440" y="160" width="40" height="30" as="geometry" />
        </mxCell>
        <mxCell id="UJ0ENTlWFr_UsNrsg2RX-11" style="edgeStyle=orthogonalEdgeStyle;rounded=0;orthogonalLoop=1;jettySize=auto;html=1;" edge="1" parent="1" source="UJ0ENTlWFr_UsNrsg2RX-7" target="UJ0ENTlWFr_UsNrsg2RX-10">
          <mxGeometry relative="1" as="geometry" />
        </mxCell>
        <mxCell id="UJ0ENTlWFr_UsNrsg2RX-30" style="edgeStyle=orthogonalEdgeStyle;rounded=0;orthogonalLoop=1;jettySize=auto;html=1;" edge="1" parent="1" source="UJ0ENTlWFr_UsNrsg2RX-7" target="UJ0ENTlWFr_UsNrsg2RX-27">
          <mxGeometry relative="1" as="geometry" />
        </mxCell>
        <mxCell id="UJ0ENTlWFr_UsNrsg2RX-7" value="BD" style="shape=cylinder3;whiteSpace=wrap;html=1;boundedLbl=1;backgroundOutline=1;size=15;" vertex="1" parent="1">
          <mxGeometry x="355" y="340" width="60" height="80" as="geometry" />
        </mxCell>
        <mxCell id="UJ0ENTlWFr_UsNrsg2RX-8" value=":5432" style="text;html=1;align=center;verticalAlign=middle;whiteSpace=wrap;rounded=0;" vertex="1" parent="1">
          <mxGeometry x="410" y="390" width="60" height="30" as="geometry" />
        </mxCell>
        <mxCell id="UJ0ENTlWFr_UsNrsg2RX-10" value="SVC/BD" style="triangle;whiteSpace=wrap;html=1;rotation=-90;" vertex="1" parent="1">
          <mxGeometry x="355" y="225" width="60" height="80" as="geometry" />
        </mxCell>
        <mxCell id="UJ0ENTlWFr_UsNrsg2RX-18" value=":5432" style="text;html=1;align=center;verticalAlign=middle;whiteSpace=wrap;rounded=0;" vertex="1" parent="1">
          <mxGeometry x="414" y="270" width="60" height="30" as="geometry" />
        </mxCell>
        <mxCell id="UJ0ENTlWFr_UsNrsg2RX-26" style="edgeStyle=orthogonalEdgeStyle;rounded=0;orthogonalLoop=1;jettySize=auto;html=1;" edge="1" parent="1" source="UJ0ENTlWFr_UsNrsg2RX-21" target="UJ0ENTlWFr_UsNrsg2RX-1">
          <mxGeometry relative="1" as="geometry">
            <Array as="points">
              <mxPoint x="550" y="40" />
              <mxPoint x="550" y="160" />
            </Array>
          </mxGeometry>
        </mxCell>
        <mxCell id="UJ0ENTlWFr_UsNrsg2RX-21" value="admin: asdasd&lt;div&gt;uriadmin: asasda&lt;/div&gt;&lt;div&gt;srvrc: srcsrcei&lt;/div&gt;" style="shape=note;whiteSpace=wrap;html=1;backgroundOutline=1;darkOpacity=0.05;verticalAlign=top;align=left;" vertex="1" parent="1">
          <mxGeometry x="580" width="135" height="80" as="geometry" />
        </mxCell>
        <mxCell id="UJ0ENTlWFr_UsNrsg2RX-24" style="edgeStyle=orthogonalEdgeStyle;rounded=0;orthogonalLoop=1;jettySize=auto;html=1;" edge="1" parent="1" source="UJ0ENTlWFr_UsNrsg2RX-22" target="UJ0ENTlWFr_UsNrsg2RX-1">
          <mxGeometry relative="1" as="geometry">
            <Array as="points">
              <mxPoint x="550" y="275" />
              <mxPoint x="550" y="160" />
            </Array>
          </mxGeometry>
        </mxCell>
        <mxCell id="UJ0ENTlWFr_UsNrsg2RX-22" value="user: asdsa&lt;div&gt;password: asda&lt;/div&gt;&lt;div&gt;svc: asdasd&lt;/div&gt;&lt;div&gt;port: asdasd&lt;/div&gt;&lt;div&gt;bd: asdasd&lt;/div&gt;" style="shape=note;whiteSpace=wrap;html=1;backgroundOutline=1;darkOpacity=0.05;align=left;verticalAlign=top;" vertex="1" parent="1">
          <mxGeometry x="580" y="230" width="120" height="90" as="geometry" />
        </mxCell>
        <mxCell id="UJ0ENTlWFr_UsNrsg2RX-25" style="edgeStyle=orthogonalEdgeStyle;rounded=0;orthogonalLoop=1;jettySize=auto;html=1;entryX=1;entryY=0.5;entryDx=0;entryDy=0;entryPerimeter=0;" edge="1" parent="1" source="UJ0ENTlWFr_UsNrsg2RX-22" target="UJ0ENTlWFr_UsNrsg2RX-7">
          <mxGeometry relative="1" as="geometry">
            <Array as="points">
              <mxPoint x="550" y="275" />
              <mxPoint x="550" y="380" />
            </Array>
          </mxGeometry>
        </mxCell>
        <mxCell id="UJ0ENTlWFr_UsNrsg2RX-31" style="edgeStyle=orthogonalEdgeStyle;rounded=0;orthogonalLoop=1;jettySize=auto;html=1;" edge="1" parent="1" source="UJ0ENTlWFr_UsNrsg2RX-27" target="UJ0ENTlWFr_UsNrsg2RX-29">
          <mxGeometry relative="1" as="geometry" />
        </mxCell>
        <mxCell id="UJ0ENTlWFr_UsNrsg2RX-27" value="PVC" style="rhombus;whiteSpace=wrap;html=1;" vertex="1" parent="1">
          <mxGeometry x="345" y="500" width="80" height="80" as="geometry" />
        </mxCell>
        <mxCell id="UJ0ENTlWFr_UsNrsg2RX-29" value="PV" style="shape=cube;whiteSpace=wrap;html=1;boundedLbl=1;backgroundOutline=1;darkOpacity=0.05;darkOpacity2=0.1;" vertex="1" parent="1">
          <mxGeometry x="325" y="620" width="120" height="80" as="geometry" />
        </mxCell>
        <mxCell id="UJ0ENTlWFr_UsNrsg2RX-47" value="NFS: 10.14.16.12&lt;div&gt;/home/kubernetes/devel/wp&lt;/div&gt;" style="text;html=1;align=center;verticalAlign=middle;resizable=0;points=[];autosize=1;strokeColor=none;fillColor=none;" vertex="1" parent="1">
          <mxGeometry x="400" y="690" width="170" height="40" as="geometry" />
        </mxCell>
      </root>
    </mxGraphModel>
  </diagram>
</mxfile>
